<?xml version="1.0" encoding="utf-8"?>
<!-- Generator: Adobe Illustrator 22.0.1, SVG Export Plug-In . SVG Version: 6.00 Build 0)  -->
<svg version="1.1" id="Слой_1" xmlns="http://www.w3.org/2000/svg" xmlns:xlink="http://www.w3.org/1999/xlink" x="0px" y="0px"
	 viewBox="0 0 12.9883118 13.0003643" style="enable-background:new 0 0 12.9883118 13.0003643;" xml:space="preserve">
<style type="text/css">
	.st0{fill:#126BC6;}
</style>
<path class="st0" d="M12.6476612,9.5408001l-1.8162994-1.8135004c-0.6486998-0.6482-1.7514-0.3898997-2.0110006,0.4527998
	C8.625762,8.7641001,7.9770617,9.0875998,7.3932614,8.9580994C6.0957618,8.6335001,4.3443618,6.9496999,4.0199618,5.5886998
	C3.8253615,5.0049996,4.2145615,4.3578997,4.7983618,4.1636c0.8434-0.2594001,1.1027999-1.3608,0.4541998-2.0093L3.4360616,0.3399
	c-0.5188999-0.4532-1.2973001-0.4532-1.7514,0L0.4520616,1.5716c-1.2325001,1.2955,0.1298,4.7293,3.1787,7.7748995
	c3.0489001,3.0453005,6.487,4.4710007,7.7843995,3.1749001l1.2325001-1.2312994
	C13.101862,10.7725,13.101862,9.9951,12.6476612,9.5408001z"/>
</svg>
