<svg width="38" height="30" viewBox="0 0 38 30" fill="none" xmlns="http://www.w3.org/2000/svg">
<path d="M4.58132 2.20153C4.43963 1.02575 3.54972 0.349609 2.37145 0.349609C1.02663 0.349609 0 1.29918 0 2.96467C0 4.62518 1.00923 5.57972 2.37145 5.57972C3.67649 5.57972 4.46449 4.71218 4.58132 3.77504L3.49254 3.77006C3.39062 4.31445 2.96307 4.62766 2.38885 4.62766C1.61577 4.62766 1.09126 4.05344 1.09126 2.96467C1.09126 1.90572 1.60831 1.30167 2.39631 1.30167C2.98544 1.30167 3.41051 1.64222 3.49254 2.20153H4.58132Z" fill="black"/>
<path d="M8.99306 5.51012H10.3279L8.24981 2.78072L10.236 0.419212H8.89612L7.20577 2.45259H6.98951V0.419212H5.91316V5.51012H6.98951V3.34002H7.35741L8.99306 5.51012Z" fill="black"/>
<path d="M12.3067 5.51012L12.6845 4.34925H14.5215L14.8994 5.51012H16.0528L14.2978 0.419212H12.9107L11.1533 5.51012H12.3067ZM12.958 3.50906L13.5844 1.58256H13.6242L14.2506 3.50906H12.958Z" fill="black"/>
<path d="M17.4319 0.419212V2.05984C17.4294 3.21822 18.2223 3.72532 19.4503 3.72532C19.7064 3.72532 20.1538 3.69052 20.462 3.62837V5.51012H21.5135V0.419212H20.462V2.77575C20.1563 2.8354 19.7089 2.86523 19.4503 2.86523C18.7742 2.86523 18.4784 2.64897 18.4784 2.05984V0.419212H17.4319Z" fill="black"/>
<path d="M24.0156 5.51012L24.3934 4.34925H26.2304L26.6083 5.51012H27.7617L26.0067 0.419212H24.6196L22.8622 5.51012H24.0156ZM24.6668 3.50906L25.2933 1.58256H25.333L25.9595 3.50906H24.6668Z" fill="black"/>
<path d="M28.1116 1.30664H29.6702V5.51012H30.7341V1.30664H32.2927V0.419212H28.1116V1.30664Z" fill="black"/>
<path d="M34.635 2.30096V0.419212H33.5612V5.51012H35.4628C36.6709 5.51012 37.4241 4.84641 37.4216 3.88441C37.4241 2.91992 36.6709 2.30096 35.4628 2.30096H34.635ZM34.635 3.1511H35.4628C36.042 3.1511 36.3577 3.46928 36.3552 3.87447C36.3577 4.29208 36.042 4.64506 35.4628 4.64506H34.635V3.1511Z" fill="black"/>
<path d="M9.91964 9.41921H5.73356V14.5101H6.79748V10.2942H8.85572V14.5101H9.91964V9.41921Z" fill="black"/>
<path d="M11.5044 14.5101H12.5808V12.8596H13.4856C14.6564 12.8596 15.3375 12.161 15.3375 11.1444C15.3375 10.1326 14.6688 9.41921 13.5129 9.41921H11.5044V14.5101ZM12.5808 11.997V10.2992H13.3066C13.9281 10.2992 14.2288 10.6373 14.2288 11.1444C14.2288 11.649 13.9281 11.997 13.3116 11.997H12.5808Z" fill="black"/>
<path d="M16.8862 14.5101L17.2641 13.3493H19.1011L19.4789 14.5101H20.6323L18.8774 9.41921H17.4903L15.7328 14.5101H16.8862ZM17.5375 12.5091L18.1639 10.5826H18.2037L18.8301 12.5091H17.5375Z" fill="black"/>
<path d="M21.8076 9.41921V14.5101H22.7372L24.9521 11.3059H24.9894V14.5101H26.0657V9.41921H25.1211L22.9237 12.6209H22.8789V9.41921H21.8076ZM24.4251 8.08682C24.4251 8.32049 24.2859 8.53178 23.9329 8.53178C23.57 8.53178 23.4358 8.31552 23.4382 8.08682H22.7049C22.7049 8.68839 23.1797 9.09109 23.9329 9.09109C24.6861 9.09109 25.1609 8.68839 25.1634 8.08682H24.4251Z" fill="black"/>
<path d="M32.0044 11.2015C31.8627 10.0257 30.9728 9.34961 29.7945 9.34961C28.4497 9.34961 27.423 10.2992 27.423 11.9647C27.423 13.6252 28.4323 14.5797 29.7945 14.5797C31.0995 14.5797 31.8875 13.7122 32.0044 12.775L30.9156 12.7701C30.8137 13.3145 30.3861 13.6277 29.8119 13.6277C29.0388 13.6277 28.5143 13.0534 28.5143 11.9647C28.5143 10.9057 29.0314 10.3017 29.8194 10.3017C30.4085 10.3017 30.8336 10.6422 30.9156 11.2015H32.0044Z" fill="black"/>
<path d="M21.3786 22.2711L18.9648 24.6848V18.5098H17.9648V24.7356L15.5004 22.2711L14.7932 22.9782L18.4395 26.6244L22.0857 22.9782L21.3786 22.2711Z" fill="black"/>
<path d="M14 25.0938V28.7083H22.875V25.0938H23.875V29.7083H13V25.0938H14Z" fill="black"/>
</svg>
