<?xml version="1.0" encoding="utf-8"?>
<!-- Generator: Adobe Illustrator 22.0.1, SVG Export Plug-In . SVG Version: 6.00 Build 0)  -->
<svg version="1.1" id="Слой_1" xmlns="http://www.w3.org/2000/svg" xmlns:xlink="http://www.w3.org/1999/xlink" x="0px" y="0px"
	 viewBox="0 0 134.963623 131.2890625" style="enable-background:new 0 0 134.963623 131.2890625;" xml:space="preserve">
<style type="text/css">
	.st0{fill:url(#SVGID_1_);}
	.st1{fill:url(#SVGID_2_);}
	.st2{fill:#FFFFFF;}
</style>
<linearGradient id="SVGID_1_" gradientUnits="userSpaceOnUse" x1="67.4818115" y1="3.770977" x2="67.4818115" y2="118.5298309">
	<stop  offset="0" style="stop-color:#60B7F6"/>
	<stop  offset="1" style="stop-color:#0660BF"/>
</linearGradient>
<polygon class="st0" points="55.4980469,114.5712891 0,37.1962891 31.3190918,0 103.6445313,0 134.963623,37.1962891 
	77.2373047,117.6806641 67.4824219,131.2890625 "/>
<linearGradient id="SVGID_2_" gradientUnits="userSpaceOnUse" x1="67.4817963" y1="13.3537874" x2="67.4817963" y2="104.0928955">
	<stop  offset="0" style="stop-color:#60B7F6"/>
	<stop  offset="1" style="stop-color:#0660BF"/>
</linearGradient>
<path class="st1" d="M98.0612793,12.000308H36.902317L15.1907549,37.786377l50.0599861,69.7941666l2.2310562,3.1122513
	l2.2310867-3.1122513l50.0599594-69.7941666L98.0612793,12.000308z M93.5321732,16.9347553l-26.0503769,81.428978
	l-26.0503464-81.428978H93.5321732z M21.4363461,38.0295563L37.0609283,19.472456l23.3011627,72.8254395L21.4363461,38.0295563z
	 M97.9026718,19.472456l15.6245804,18.5571003L74.6015091,92.2978973L97.9026718,19.472456z"/>
<path class="st2" d="M98.0612793,12.000308H36.902317L15.1907549,37.786377l50.0599861,69.7941666l2.2310562,3.1122513
	l2.2310867-3.1122513l50.0599594-69.7941666L98.0612793,12.000308z M93.5321732,16.9347553l-26.0503769,81.428978
	l-26.0503464-81.428978H93.5321732z M21.4363461,38.0295563L37.0609283,19.472456l23.3011627,72.8254395L21.4363461,38.0295563z
	 M97.9026718,19.472456l15.6245804,18.5571003L74.6015091,92.2978973L97.9026718,19.472456z"/>
</svg>
