<?xml version="1.0" encoding="utf-8"?>
<!-- Generator: Adobe Illustrator 22.0.1, SVG Export Plug-In . SVG Version: 6.00 Build 0)  -->
<svg version="1.1" id="Слой_1" xmlns="http://www.w3.org/2000/svg" xmlns:xlink="http://www.w3.org/1999/xlink" x="0px" y="0px"
	 viewBox="0 0 12.3649998 15.0681" style="enable-background:new 0 0 12.3649998 15.0681;" xml:space="preserve">
<style type="text/css">
	.st0{fill:#126BC6;}
</style>
<path class="st0" d="M6.1826,0C2.7697999,0,0,2.6933999,0,6.0128999c0,2.0863004,1.0897,3.9194999,2.7426999,4.9886994v0.0077
	c0,0,2.4389999,1.5211,3.4399002,4.0588007c0.9919996-2.5377007,3.4397993-4.0588007,3.4397993-4.0588007v-0.0077
	c1.6529007-1.0691996,2.7426004-2.9023991,2.7426004-4.9886994C12.3649998,2.6933999,9.5956993,0,6.1826,0z M6.1826,7.6817999
	c-0.9558001,0-1.7241001-0.7467003-1.7241001-1.6689c0-0.9203,0.7683001-1.6767001,1.7241001-1.6767001
	c0.9470997,0,1.7152996,0.7564001,1.7152996,1.6767001C7.8978996,6.9350996,7.1296997,7.6817999,6.1826,7.6817999z"/>
</svg>
